<svg width="346" height="196" viewBox="0 0 346 196" fill="none" xmlns="http://www.w3.org/2000/svg">
<circle cx="113.5" cy="96.5" r="60.5" stroke="#CBD9DB" stroke-width="36"/>
<circle cx="234.5" cy="96.5" r="60.5" stroke="#CBD9DB" stroke-width="36"/>
<circle cx="115" cy="97" r="60" stroke="#A2BDC1" stroke-width="2" stroke-dasharray="6 6"/>
<circle cx="235" cy="97" r="60" stroke="#A2BDC1" stroke-width="2" stroke-dasharray="6 6"/>
<circle cx="309.074" cy="97.0737" r="21.0737" fill="#357079"/>
<path d="M316.711 106.031C316.711 104.635 316.711 103.937 316.539 103.37C316.151 102.091 315.15 101.091 313.872 100.703C313.304 100.531 312.606 100.531 311.211 100.531H306.211C304.815 100.531 304.118 100.531 303.55 100.703C302.271 101.091 301.271 102.091 300.883 103.37C300.711 103.937 300.711 104.635 300.711 106.031M313.211 92.5308C313.211 95.016 311.196 97.0308 308.711 97.0308C306.226 97.0308 304.211 95.016 304.211 92.5308C304.211 90.0455 306.226 88.0308 308.711 88.0308C311.196 88.0308 313.211 90.0455 313.211 92.5308Z" stroke="white" stroke-width="2" stroke-linecap="round" stroke-linejoin="round"/>
<circle cx="331.376" cy="111.439" r="13.9656" fill="#F0C8B6"/>
<path d="M331.162 103.821C331.339 103.292 332.088 103.292 332.266 103.821L333.737 108.211C333.816 108.449 334.038 108.608 334.289 108.608H339.01C339.578 108.608 339.809 109.339 339.345 109.666L335.557 112.335C335.346 112.483 335.258 112.752 335.34 112.996L336.794 117.336C336.973 117.869 336.367 118.321 335.907 117.997L332.049 115.279C331.848 115.137 331.58 115.137 331.379 115.279L327.52 117.997C327.061 118.321 326.455 117.869 326.633 117.336L328.088 112.996C328.17 112.752 328.081 112.483 327.871 112.335L324.083 109.666C323.618 109.339 323.85 108.608 324.418 108.608H329.139C329.389 108.608 329.612 108.449 329.691 108.211L331.162 103.821Z" fill="#357079"/>
<circle cx="38.0727" cy="97.1011" r="21.0737" fill="#357079"/>
<path d="M45.71 106.058C45.71 104.663 45.71 103.965 45.5377 103.397C45.1499 102.119 44.1495 101.118 42.8711 100.73C42.3033 100.558 41.6055 100.558 40.21 100.558H35.21C33.8144 100.558 33.1166 100.558 32.5488 100.73C31.2704 101.118 30.27 102.119 29.8822 103.397C29.71 103.965 29.71 104.663 29.71 106.058M42.21 92.5581C42.21 95.0434 40.1952 97.0581 37.71 97.0581C35.2247 97.0581 33.21 95.0434 33.21 92.5581C33.21 90.0728 35.2247 88.0581 37.71 88.0581C40.1952 88.0581 42.21 90.0728 42.21 92.5581Z" stroke="white" stroke-width="2" stroke-linecap="round" stroke-linejoin="round"/>
<path d="M15.7544 126.081L14.8403 127.269C17.4503 129.275 20.3287 130.95 23.4136 132.229L23.5581 132.28C24.2862 132.499 25.076 132.135 25.3735 131.418C25.6905 130.652 25.3279 129.775 24.563 129.458L24.0327 129.232C21.3932 128.086 18.9216 126.623 16.6675 124.891L15.7544 126.081ZM16.6675 124.891C16.0108 124.387 15.0698 124.51 14.5649 125.167C14.0602 125.823 14.1835 126.764 14.8403 127.269L16.6675 124.891ZM7.83839 120.267C8.34315 120.924 9.28405 121.047 9.94093 120.543C10.5974 120.038 10.7209 119.097 10.2163 118.44L7.83839 120.267ZM5.58448 110.406C5.22388 109.737 4.40724 109.437 3.68995 109.734C2.92479 110.051 2.56123 110.929 2.87843 111.694L3.12354 112.27C4.36887 115.138 5.95819 117.82 7.83839 120.267L9.02686 119.353L10.2163 118.44C8.36858 116.036 6.82735 113.384 5.64991 110.544L5.58448 110.406ZM2.00147 90.9253C1.2316 90.825 0.522371 91.3282 0.348153 92.0679L0.319833 92.2193L0.245614 92.8286C0.0830717 94.2541 -0.000447359 95.7035 -0.000479912 97.1714C-0.000480059 98.8492 0.108347 100.503 0.319832 102.125L0.348152 102.276C0.522217 103.016 1.23148 103.519 2.00147 103.418C2.82263 103.311 3.40244 102.558 3.29542 101.737L3.22608 101.175C3.07636 99.8622 2.99952 98.5257 2.99952 97.1714C2.99955 95.8174 3.07638 94.4814 3.22608 93.1685L3.29542 92.607L3.30714 92.4536C3.32845 91.6941 2.77118 91.0259 2.00147 90.9253ZM9.94093 73.8013C9.32532 73.3282 8.45985 73.4071 7.938 73.9595L7.83839 74.0767L7.46534 74.5689C5.62432 77.0468 4.07766 79.7581 2.87843 82.6499C2.56114 83.4152 2.92473 84.2926 3.68995 84.6099C4.45508 84.927 5.33255 84.5644 5.64991 83.7994C6.75372 81.1377 8.17754 78.6407 9.87355 76.3579L10.2163 75.9038L10.3042 75.7779C10.7037 75.1314 10.5565 74.2744 9.94093 73.8013ZM25.3735 62.9263C25.076 62.2091 24.2861 61.8445 23.5581 62.063L23.4136 62.1148L22.8374 62.3599C19.9702 63.6051 17.2868 65.1939 14.8403 67.0738C14.1835 67.5785 14.0602 68.5204 14.565 69.1773C15.0697 69.8341 16.0106 69.9573 16.6675 69.4527C18.9216 67.7205 21.3932 66.2571 24.0327 65.1109L24.563 64.8863L24.7017 64.8199C25.3704 64.459 25.6709 63.6434 25.3735 62.9263Z" fill="#357079"/>
<circle cx="235.074" cy="173.074" r="21.0737" fill="#5D8D94"/>
<path d="M242.711 182.031C242.711 180.635 242.711 179.937 242.539 179.37C242.151 178.091 241.15 177.091 239.872 176.703C239.304 176.531 238.606 176.531 237.211 176.531H232.211C230.815 176.531 230.118 176.531 229.55 176.703C228.271 177.091 227.271 178.091 226.883 179.37C226.711 179.937 226.711 180.635 226.711 182.031M239.211 168.531C239.211 171.016 237.196 173.031 234.711 173.031C232.226 173.031 230.211 171.016 230.211 168.531C230.211 166.045 232.226 164.031 234.711 164.031C237.196 164.031 239.211 166.045 239.211 168.531Z" stroke="white" stroke-width="2" stroke-linecap="round" stroke-linejoin="round"/>
<circle cx="112.074" cy="21.0737" r="21.0737" fill="#5D8D94"/>
<path d="M119.711 30.0308C119.711 28.6352 119.711 27.9374 119.539 27.3696C119.151 26.0912 118.15 25.0908 116.872 24.703C116.304 24.5308 115.606 24.5308 114.211 24.5308H109.211C107.815 24.5308 107.118 24.5308 106.55 24.703C105.271 25.0908 104.271 26.0912 103.883 27.3696C103.711 27.9374 103.711 28.6352 103.711 30.0308M116.211 16.5308C116.211 19.016 114.196 21.0308 111.711 21.0308C109.226 21.0308 107.211 19.016 107.211 16.5308C107.211 14.0455 109.226 12.0308 111.711 12.0308C114.196 12.0308 116.211 14.0455 116.211 16.5308Z" stroke="white" stroke-width="2" stroke-linecap="round" stroke-linejoin="round"/>
<circle cx="112.074" cy="173.074" r="21.0737" fill="#357079"/>
<path d="M119.711 182.031C119.711 180.635 119.711 179.937 119.539 179.37C119.151 178.091 118.15 177.091 116.872 176.703C116.304 176.531 115.606 176.531 114.211 176.531H109.211C107.815 176.531 107.118 176.531 106.55 176.703C105.271 177.091 104.271 178.091 103.883 179.37C103.711 179.937 103.711 180.635 103.711 182.031M116.211 168.531C116.211 171.016 114.196 173.031 111.711 173.031C109.226 173.031 107.211 171.016 107.211 168.531C107.211 166.045 109.226 164.031 111.711 164.031C114.196 164.031 116.211 166.045 116.211 168.531Z" stroke="white" stroke-width="2" stroke-linecap="round" stroke-linejoin="round"/>
<circle cx="137.966" cy="181.966" r="13.9656" fill="#F0C8B6"/>
<path d="M137.752 174.348C137.929 173.819 138.678 173.819 138.855 174.348L140.327 178.738C140.406 178.976 140.628 179.136 140.878 179.136H145.6C146.168 179.136 146.399 179.866 145.935 180.193L142.146 182.862C141.936 183.011 141.848 183.279 141.93 183.523L143.384 187.863C143.563 188.396 142.957 188.848 142.497 188.524L138.639 185.806C138.438 185.664 138.17 185.664 137.969 185.806L134.11 188.524C133.651 188.848 133.045 188.396 133.223 187.863L134.678 183.523C134.759 183.279 134.671 183.011 134.461 182.862L130.672 180.193C130.208 179.866 130.44 179.136 131.008 179.136H135.729C135.979 179.136 136.201 178.976 136.281 178.738L137.752 174.348Z" fill="#357079"/>
<circle cx="235.221" cy="21.0737" r="21.0737" fill="#357079"/>
<path d="M242.858 30.0308C242.858 28.6352 242.858 27.9374 242.686 27.3696C242.298 26.0912 241.298 25.0908 240.02 24.703C239.452 24.5308 238.754 24.5308 237.358 24.5308H232.358C230.963 24.5308 230.265 24.5308 229.697 24.703C228.419 25.0908 227.418 26.0912 227.031 27.3696C226.858 27.9374 226.858 28.6352 226.858 30.0308M239.358 16.5308C239.358 19.016 237.344 21.0308 234.858 21.0308C232.373 21.0308 230.358 19.016 230.358 16.5308C230.358 14.0455 232.373 12.0308 234.858 12.0308C237.344 12.0308 239.358 14.0455 239.358 16.5308Z" stroke="white" stroke-width="2" stroke-linecap="round" stroke-linejoin="round"/>
<rect x="138" y="62" width="71" height="71" rx="35.5" fill="#357079"/>
<path d="M184.166 109.5C184.166 107.639 184.166 106.709 183.937 105.952C183.42 104.247 182.086 102.913 180.381 102.396C179.624 102.167 178.694 102.167 176.833 102.167H170.166C168.306 102.167 167.375 102.167 166.618 102.396C164.914 102.913 163.58 104.247 163.063 105.952C162.833 106.709 162.833 107.639 162.833 109.5M179.5 91.5C179.5 94.8137 176.813 97.5 173.5 97.5C170.186 97.5 167.5 94.8137 167.5 91.5C167.5 88.1863 170.186 85.5 173.5 85.5C176.813 85.5 179.5 88.1863 179.5 91.5Z" stroke="white" stroke-width="2" stroke-linecap="round" stroke-linejoin="round"/>
</svg>
